<svg xmlns="http://www.w3.org/2000/svg" version="1.1" xmlns:xlink="http://www.w3.org/1999/xlink" xmlns:svgjs="http://svgjs.dev/svgjs" width="1500" height="1500" viewBox="0 0 1500 1500"><g transform="matrix(1,0,0,1,0,0)"><svg viewBox="0 0 280 280" data-background-color="#ffffff" preserveAspectRatio="xMidYMid meet" height="1500" width="1500" xmlns="http://www.w3.org/2000/svg" xmlns:xlink="http://www.w3.org/1999/xlink"><g id="tight-bounds" transform="matrix(1,0,0,1,0,0)"><svg viewBox="0 0 280 280" height="280" width="280"><g><svg viewBox="0 0 280 280" height="280" width="280"><g><svg viewBox="0 0 280 280" height="280" width="280"><g id="textblocktransform"><svg viewBox="0 0 280 280" height="280" width="280" id="textblock"><g><svg viewBox="0 0 280 280" height="280" width="280"><g transform="matrix(1,0,0,1,57.50420886156945,57.50420886156945)"><svg viewBox="0 0 164.9915822768611 164.9915822768611" height="164.9915822768611" width="164.9915822768611"><g id="icon-0"><circle r="82" cx="82.49579113843055" cy="82.49579113843055" fill="#50a060" data-fill-palette-color="accent"></circle><svg xmlns="http://www.w3.org/2000/svg" xmlns:xlink="http://www.w3.org/1999/xlink" version="1.1" x="24.74873734152917" y="24.748737341529164" viewBox="17.969 3.617 64.14855475252315 90.0010197926202" enable-background="new 0 0 100 100" xml:space="preserve" height="115.49410759380275" width="115.49410759380275" class="icon-jxe-0" data-fill-palette-color="quaternary" id="jxe-0"><path d="M79.928 81.346A3.118 3.118 0 0 0 76.799 75.953L72.666 78.446 70.247 74.928 74.084 74.437 63.758 56.407A3.46 3.46 0 0 0 60.318 53.181L58.744 53.179 64.171 45.649 65.522 45.601A3.12 3.12 0 0 0 68.526 42.373 3.1 3.1 0 0 0 67.845 40.552L77.508 27.143C78.642 27.219 80.049 26.433 81.051 25.043 82.366 23.218 82.481 21.052 81.307 20.206S78.115 20.154 76.8 21.979C75.798 23.369 75.498 24.953 75.928 26.005L66.21 39.486A3 3 0 0 0 65.297 39.369L61.186 39.517 62.056 36.953C59.101 37.511 50.638 34.775 50.638 34.775L44.402 30.72A3.1 3.1 0 0 0 41.676 30.403 3.11 3.11 0 0 1 45.157 30.344L49.984 33.483A6.09 6.09 0 0 0 37.892 34.532L37.94 53.71S36.22 67.58 31.919 79.837L37.664 79.102 33.434 84.971C27.552 81.374 23.605 74.909 23.605 67.524 23.605 59.501 28.259 52.562 34.998 49.211L34.882 43.128C25.016 46.855 17.969 56.369 17.969 67.523 17.969 76.787 22.826 84.934 30.123 89.566L28.336 92.046A0.973 0.973 0 1 0 29.916 93.184L31.812 90.554A25.9 25.9 0 0 0 44.064 93.618C52.049 93.618 59.198 90.005 63.989 84.337L60.529 79.615C56.801 84.677 50.819 87.982 44.064 87.982 40.869 87.982 37.854 87.225 35.157 85.913L40.31 78.763 63.295 75.821 69.302 84.559A3.12 3.12 0 0 0 73.637 85.362zM50.124 53.167L50.097 42.115C53.04 44.378 57.258 47.895 57.702 49.782L59.042 45.833 61.705 45.737 56.344 53.176zM80.77 21.72A0.538 0.538 0 1 1 80.139 22.595 0.54 0.54 0 1 1 80.77 21.72M49.643 20.765C49.689 21.05 49.719 21.34 49.719 21.637A5.432 5.432 0 0 1 38.855 21.637C38.855 21.339 38.885 21.049 38.931 20.765H30.959L38.064 14.828C37.412 13.205 37.607 8.559 37.607 8.559 34.542 7.453 29.454 3.617 29.454 3.617 34.02 5.461 37.281 4.502 37.281 4.502S38.52 4.133 43.803 8.411L48.89 15.123 59.097 20.765z" fill="#ffffff" data-fill-palette-color="quaternary"></path></svg></g></svg></g><g id="text-0"><path d="M28.425 87.384l2.7 0.944-6.829 19.535-18.892-6.604 6.829-19.535 2.701 0.944-5.889 16.844 13.492 4.717zM19.53 86.856l2.7 0.944-4.611 13.189-2.7-0.944z" fill="#50a060" data-fill-palette-color="primary"></path><path d="M31.264 65.378l2.476 1.432-7.872 13.615-2.476-1.432z" fill="#50a060" data-fill-palette-color="primary"></path><path d="M46.912 34.463l9.514 8.571c0.977 0.88 1.658 1.929 2.043 3.148 0.38 1.213 0.446 2.441 0.199 3.682-0.247 1.241-0.816 2.355-1.705 3.342v0c-0.793 0.88-1.719 1.523-2.78 1.929-1.051 0.406-2.128 0.562-3.23 0.468v0c0.222 1.071 0.183 2.152-0.116 3.246-0.294 1.097-0.835 2.084-1.622 2.958v0c-0.88 0.977-1.927 1.655-3.141 2.035-1.218 0.385-2.45 0.452-3.697 0.2-1.252-0.257-2.366-0.825-3.342-1.705v0l-9.514-8.571 1.915-2.125 9.513 8.571c0.598 0.539 1.272 0.882 2.021 1.028 0.749 0.156 1.488 0.117 2.217-0.115 0.729-0.223 1.364-0.634 1.902-1.233v0c0.521-0.578 0.86-1.232 1.017-1.961 0.157-0.73 0.134-1.45-0.069-2.161-0.203-0.711-0.577-1.335-1.121-1.872v0l-9.667-8.709 1.936-2.148 9.513 8.571c0.598 0.539 1.272 0.882 2.02 1.028 0.749 0.156 1.488 0.117 2.217-0.116 0.729-0.223 1.364-0.634 1.903-1.232v0c0.535-0.593 0.875-1.264 1.021-2.013 0.156-0.749 0.12-1.491-0.109-2.225-0.228-0.724-0.641-1.356-1.239-1.894v0l-9.513-8.571z" fill="#50a060" data-fill-palette-color="primary"></path><path d="M74.572 25.874l6.127 8.795-11.726 8.17c-0.751 0.523-1.568 0.82-2.451 0.89-0.877 0.066-1.714-0.081-2.51-0.441-0.8-0.366-1.466-0.93-1.997-1.692v0c-0.535-0.768-0.834-1.588-0.896-2.46-0.066-0.877 0.084-1.716 0.45-2.516 0.371-0.804 0.932-1.468 1.684-1.991v0l8.21-5.72 1.635 2.347-8.21 5.72c-0.486 0.338-0.781 0.8-0.886 1.385-0.104 0.585 0.012 1.12 0.351 1.605v0c0.335 0.48 0.794 0.772 1.379 0.877 0.585 0.104 1.12-0.012 1.606-0.351v0l9.379-6.535-4.492-6.447c-0.338-0.486-0.8-0.781-1.385-0.886-0.585-0.104-1.117 0.011-1.597 0.345v0l-9.388 6.541-1.629-2.338 9.388-6.541c0.763-0.531 1.582-0.83 2.459-0.896 0.872-0.062 1.705 0.087 2.502 0.447 0.796 0.36 1.462 0.924 1.997 1.692z" fill="#50a060" data-fill-palette-color="primary"></path><path d="M98.267 20.933v0c0.386 0.846 0.532 1.706 0.439 2.58-0.096 0.868-0.392 1.662-0.889 2.381-0.503 0.721-1.178 1.275-2.023 1.66v0l-11.059 5.044-1.187-2.602 11.058-5.044c0.539-0.246 0.909-0.645 1.111-1.199 0.208-0.556 0.19-1.101-0.053-1.633v0c-0.246-0.539-0.647-0.912-1.203-1.12-0.55-0.211-1.094-0.193-1.633 0.053v0l-7.15 3.261c-0.714 0.326-1.447 0.452-2.199 0.379-0.761-0.076-1.45-0.334-2.066-0.772-0.625-0.441-1.099-1.016-1.422-1.723v0c-0.331-0.727-0.457-1.467-0.378-2.223 0.076-0.746 0.336-1.428 0.78-2.047 0.438-0.616 1.014-1.087 1.728-1.412v0l10.401-4.744 1.183 2.593-10.401 4.744c-0.37 0.169-0.621 0.438-0.754 0.81-0.136 0.365-0.122 0.729 0.044 1.092v0c0.166 0.363 0.431 0.613 0.795 0.749 0.365 0.136 0.732 0.12 1.102-0.048v0l7.15-3.262c0.846-0.386 1.706-0.532 2.58-0.439 0.868 0.096 1.663 0.395 2.385 0.899 0.719 0.497 1.272 1.171 1.661 2.023z" fill="#50a060" data-fill-palette-color="primary"></path><path d="M106.551 10.45l3.285 12.44-2.765 0.731-3.286-12.441-4.143 1.095-0.728-2.756 4.144-1.094-1.461-5.532 2.766-0.73 1.46 5.531 9.665-2.552 0.728 2.756z" fill="#50a060" data-fill-palette-color="primary"></path><path d="M140.363 7.531v0c0.084 0.912-0.061 1.769-0.436 2.571-0.376 0.795-0.92 1.451-1.632 1.966-0.706 0.515-1.525 0.815-2.458 0.902v0l-10.899 1.009c0.475 0.799 1.131 1.43 1.969 1.892 0.837 0.455 1.749 0.637 2.737 0.545v0l9.305-0.862 0.264 2.848-9.306 0.862c-1.083 0.1-2.113-0.012-3.09-0.336-0.977-0.317-1.855-0.803-2.634-1.457-0.773-0.654-1.401-1.433-1.886-2.335-0.491-0.902-0.787-1.894-0.888-2.977v0c-0.1-1.083 0.008-2.113 0.326-3.089 0.311-0.976 0.786-1.857 1.425-2.642 0.646-0.786 1.42-1.428 2.321-1.926 0.902-0.491 1.894-0.787 2.977-0.888v0l6.457-0.598c0.932-0.086 1.793 0.059 2.582 0.435 0.795 0.376 1.45 0.917 1.965 1.623 0.515 0.706 0.815 1.525 0.901 2.457zM124.253 11.18l11.321-1.048c0.59-0.055 1.074-0.31 1.454-0.768 0.379-0.457 0.542-0.98 0.487-1.569v0c-0.055-0.59-0.31-1.074-0.767-1.454-0.457-0.379-0.98-0.542-1.57-0.487v0l-6.457 0.598c-0.836 0.077-1.583 0.34-2.24 0.788-0.657 0.441-1.183 1.005-1.575 1.691-0.4 0.687-0.617 1.436-0.653 2.249z" fill="#50a060" data-fill-palette-color="primary"></path><path d="M187.616 5.653l-2.787 12.498c-0.286 1.283-0.865 2.392-1.736 3.327-0.87 0.928-1.906 1.589-3.108 1.984-1.202 0.395-2.452 0.448-3.749 0.158v0c-1.156-0.258-2.171-0.749-3.047-1.472-0.87-0.716-1.535-1.577-1.995-2.582v0c-0.823 0.719-1.784 1.217-2.883 1.494-1.1 0.284-2.225 0.298-3.374 0.042v0c-1.283-0.286-2.389-0.864-3.316-1.734-0.934-0.871-1.598-1.912-1.992-3.121-0.392-1.216-0.445-2.466-0.159-3.749v0l2.786-12.498 2.792 0.622-2.786 12.498c-0.175 0.786-0.143 1.541 0.098 2.265 0.232 0.729 0.629 1.353 1.191 1.874 0.553 0.525 1.223 0.876 2.009 1.051v0c0.759 0.169 1.495 0.143 2.207-0.079 0.713-0.222 1.328-0.596 1.848-1.123 0.519-0.526 0.879-1.158 1.079-1.896v0l2.831-12.7 2.822 0.629-2.786 12.498c-0.175 0.786-0.143 1.541 0.098 2.265 0.232 0.729 0.629 1.353 1.191 1.874 0.553 0.525 1.223 0.876 2.008 1.051v0c0.779 0.174 1.531 0.14 2.255-0.101 0.729-0.232 1.357-0.629 1.884-1.188 0.519-0.554 0.866-1.225 1.04-2.011v0l2.787-12.498z" fill="#50a060" data-fill-palette-color="primary"></path><path d="M199.031 11.019v0c-0.223 0.541-0.608 0.926-1.157 1.154-0.542 0.231-1.086 0.234-1.634 0.009v0c-0.547-0.225-0.935-0.612-1.164-1.161-0.228-0.548-0.231-1.093-0.008-1.634v0c0.225-0.547 0.612-0.935 1.16-1.163 0.548-0.228 1.096-0.23 1.644-0.005v0c0.547 0.225 0.932 0.611 1.154 1.157 0.228 0.548 0.23 1.096 0.005 1.643zM197.012 14.052l-5.984 14.533-2.645-1.089 5.984-14.533z" fill="#50a060" data-fill-palette-color="primary"></path><path d="M219.419 26.323l-1.416 2.474-16.926 1.841 11.956 6.843-1.421 2.483-16.124-9.229 1.421-2.482 16.909-1.852-11.938-6.833 1.416-2.473z" fill="#50a060" data-fill-palette-color="primary"></path><path d="M235.707 46.218l-6.943 8.166-10.889-9.257c-0.698-0.593-1.193-1.308-1.485-2.143-0.287-0.831-0.358-1.678-0.213-2.54 0.15-0.867 0.525-1.654 1.128-2.362v0c0.606-0.713 1.323-1.211 2.15-1.493 0.831-0.287 1.681-0.356 2.547-0.206 0.872 0.154 1.657 0.528 2.355 1.12v0l7.623 6.482-1.852 2.179-7.624-6.481c-0.451-0.383-0.973-0.551-1.565-0.504-0.592 0.048-1.08 0.297-1.463 0.749v0c-0.379 0.446-0.545 0.965-0.496 1.557 0.048 0.592 0.297 1.08 0.748 1.463v0l8.709 7.404 5.091-5.987c0.383-0.451 0.551-0.973 0.503-1.565-0.048-0.592-0.295-1.077-0.741-1.456v0l-8.717-7.411 1.846-2.172 8.717 7.412c0.708 0.602 1.206 1.319 1.493 2.15 0.282 0.827 0.35 1.671 0.205 2.532-0.145 0.862-0.521 1.649-1.127 2.363z" fill="#50a060" data-fill-palette-color="primary"></path><path d="M254.358 60.385l-2.197 1.816-6.828-8.263c-0.377-0.456-0.861-0.713-1.453-0.769-0.591-0.056-1.115 0.104-1.571 0.481v0l-8.263 6.828-1.822-2.205 8.263-6.828c0.722-0.596 1.514-0.961 2.378-1.094 0.864-0.133 1.711-0.048 2.543 0.256 0.832 0.304 1.539 0.809 2.122 1.515v0z" fill="#50a060" data-fill-palette-color="primary"></path><path d="M271.401 78.121l-18.59 10.677-1.425-2.48 11.158-6.408-3.914-6.815c-0.456-0.794-1.063-1.402-1.822-1.824-0.758-0.422-1.58-0.637-2.465-0.644-0.886-0.007-1.725 0.217-2.52 0.673v0c-0.794 0.456-1.405 1.065-1.832 1.827-0.428 0.762-0.651 1.576-0.669 2.444-0.018 0.868 0.192 1.704 0.631 2.508v0l3.204 5.578-2.48 1.425-3.205-5.579c-0.542-0.943-0.868-1.927-0.979-2.95-0.118-1.02-0.041-2.021 0.229-3.001 0.274-0.975 0.72-1.87 1.339-2.687 0.616-0.822 1.395-1.504 2.338-2.045v0c0.943-0.542 1.925-0.871 2.945-0.989 1.017-0.123 2.015-0.058 2.995 0.197 0.983 0.261 1.889 0.697 2.717 1.309 0.822 0.616 1.504 1.395 2.046 2.339v0l3.913 6.814 4.961-2.849z" fill="#50a060" data-fill-palette-color="primary"></path><path d="M264.963 107.62v0c-0.876 0.31-1.746 0.38-2.609 0.21-0.857-0.172-1.621-0.537-2.292-1.096-0.674-0.565-1.166-1.286-1.476-2.162v0l-4.049-11.46 2.697-0.953 4.049 11.461c0.197 0.558 0.563 0.962 1.096 1.211 0.536 0.256 1.08 0.287 1.632 0.092v0c0.558-0.197 0.965-0.564 1.221-1.1 0.258-0.529 0.289-1.073 0.092-1.631v0l-2.618-7.41c-0.261-0.74-0.323-1.481-0.183-2.224 0.143-0.752 0.46-1.415 0.951-1.99 0.495-0.584 1.109-1.005 1.842-1.264v0c0.753-0.266 1.502-0.326 2.247-0.18 0.736 0.141 1.393 0.461 1.97 0.958 0.575 0.491 0.993 1.106 1.255 1.845v0l3.808 10.779-2.688 0.949-3.808-10.778c-0.135-0.383-0.382-0.657-0.739-0.823-0.351-0.168-0.715-0.185-1.092-0.053v0c-0.376 0.133-0.649 0.375-0.817 0.727-0.168 0.351-0.184 0.719-0.049 1.102v0l2.618 7.409c0.31 0.876 0.38 1.746 0.21 2.609-0.172 0.857-0.54 1.622-1.106 2.296-0.558 0.672-1.279 1.164-2.162 1.476z" fill="#50a060" data-fill-palette-color="primary"></path><path d="M9.369 141.374c0-1.357 1.1-2.457 2.456-2.457 1.357 0 2.457 1.1 2.457 2.457 0 1.357-1.1 2.457-2.457 2.457-1.357 0-2.457-1.1-2.456-2.457z" fill="#50a060" data-fill-palette-color="primary"></path><path d="M269.602 141.374c0-1.357 1.1-2.457 2.457-2.457 1.357 0 2.457 1.1 2.457 2.457 0 1.357-1.1 2.457-2.457 2.457-1.357 0-2.457-1.1-2.457-2.457z" fill="#50a060" data-fill-palette-color="primary"></path></g><g id="text-1"><path d="M18.985 198.664l-2.7 0.944-6.829-19.535 18.892-6.604 6.829 19.535-2.701 0.944-5.888-16.845-13.491 4.717zM26.272 193.535l-2.701 0.944-4.61-13.189 2.7-0.944z" fill="#50a060" data-fill-palette-color="primary"></path><path d="M37.447 213.795l-2.477 1.432-7.872-13.615 2.477-1.432z" fill="#50a060" data-fill-palette-color="primary"></path><path d="M64.969 232.017l-9.513 8.57c-0.977 0.88-2.091 1.448-3.343 1.705-1.246 0.252-2.474 0.19-3.683-0.184-1.209-0.375-2.258-1.056-3.147-2.043v0c-0.793-0.88-1.336-1.868-1.63-2.966-0.294-1.088-0.338-2.175-0.129-3.261v0c-1.088 0.109-2.16-0.042-3.216-0.452-1.061-0.406-1.985-1.047-2.773-1.922v0c-0.88-0.977-1.446-2.089-1.698-3.335-0.257-1.252-0.195-2.484 0.185-3.697 0.385-1.218 1.066-2.267 2.043-3.148v0l9.513-8.57 1.915 2.125-9.513 8.571c-0.598 0.539-1.009 1.173-1.233 1.902-0.233 0.729-0.271 1.468-0.115 2.217 0.146 0.749 0.489 1.422 1.028 2.021v0c0.521 0.578 1.136 0.983 1.845 1.214 0.709 0.232 1.428 0.284 2.156 0.157 0.728-0.128 1.388-0.435 1.978-0.921v0l9.667-8.709 1.936 2.148-9.514 8.571c-0.598 0.539-1.009 1.173-1.232 1.903-0.233 0.729-0.271 1.468-0.116 2.217 0.146 0.749 0.489 1.422 1.028 2.02v0c0.535 0.593 1.166 1.002 1.896 1.225 0.729 0.233 1.47 0.274 2.224 0.123 0.744-0.151 1.415-0.497 2.013-1.036v0l9.514-8.571z" fill="#50a060" data-fill-palette-color="primary"></path><path d="M77.84 252.183l-6.128 8.795-11.726-8.17c-0.751-0.523-1.312-1.187-1.684-1.991-0.366-0.8-0.517-1.636-0.456-2.508 0.066-0.877 0.364-1.697 0.896-2.459v0c0.535-0.768 1.201-1.332 1.997-1.692 0.8-0.366 1.639-0.515 2.516-0.45 0.883 0.07 1.7 0.366 2.451 0.89v0l8.21 5.72-1.635 2.347-8.21-5.72c-0.486-0.338-1.021-0.455-1.606-0.351-0.585 0.104-1.046 0.4-1.384 0.885v0c-0.335 0.48-0.45 1.013-0.345 1.597 0.104 0.585 0.4 1.046 0.885 1.385v0l9.379 6.535 4.493-6.448c0.338-0.486 0.455-1.021 0.351-1.606-0.104-0.585-0.397-1.044-0.877-1.378v0l-9.388-6.541 1.629-2.339 9.388 6.541c0.763 0.531 1.327 1.197 1.692 1.997 0.36 0.796 0.509 1.63 0.447 2.502-0.062 0.872-0.36 1.691-0.895 2.459z" fill="#50a060" data-fill-palette-color="primary"></path><path d="M95.891 267.024v0c-0.386 0.846-0.939 1.52-1.661 2.023-0.719 0.497-1.512 0.793-2.38 0.889-0.875 0.093-1.735-0.054-2.581-0.439v0l-11.058-5.044 1.187-2.602 11.058 5.044c0.539 0.246 1.083 0.263 1.633 0.052 0.556-0.208 0.956-0.578 1.199-1.11v0c0.246-0.539 0.265-1.086 0.057-1.643-0.202-0.553-0.572-0.953-1.11-1.198v0l-7.15-3.262c-0.714-0.326-1.29-0.797-1.728-1.412-0.441-0.625-0.698-1.314-0.771-2.066-0.076-0.761 0.047-1.496 0.369-2.204v0c0.331-0.727 0.808-1.307 1.43-1.742 0.613-0.432 1.299-0.683 2.058-0.753 0.752-0.073 1.485 0.053 2.199 0.379v0l10.401 4.744-1.183 2.593-10.401-4.744c-0.37-0.169-0.738-0.182-1.106-0.039-0.365 0.136-0.63 0.386-0.795 0.75v0c-0.166 0.363-0.18 0.727-0.045 1.092 0.136 0.365 0.389 0.632 0.759 0.8v0l7.15 3.261c0.846 0.386 1.52 0.939 2.023 1.661 0.497 0.719 0.792 1.515 0.885 2.39 0.096 0.868-0.051 1.729-0.439 2.58z" fill="#50a060" data-fill-palette-color="primary"></path><path d="M109.108 262.617l-3.286 12.441-2.765-0.731 3.285-12.44-4.144-1.094 0.728-2.756 4.144 1.094 1.46-5.531 2.766 0.73-1.461 5.532 9.665 2.552-0.728 2.755z" fill="#50a060" data-fill-palette-color="primary"></path><path d="M140.891 269.525v0c-0.084 0.912-0.385 1.727-0.901 2.447-0.515 0.713-1.171 1.257-1.966 1.633-0.788 0.376-1.649 0.521-2.581 0.435v0l-10.9-1.01c0.32 0.873 0.85 1.614 1.589 2.221 0.739 0.601 1.603 0.947 2.589 1.039v0l9.306 0.862-0.264 2.848-9.305-0.862c-1.083-0.1-2.075-0.4-2.977-0.898-0.902-0.491-1.676-1.13-2.321-1.916-0.639-0.785-1.114-1.666-1.425-2.641-0.317-0.977-0.426-2.006-0.326-3.09v0c0.1-1.083 0.396-2.075 0.887-2.977 0.485-0.902 1.113-1.681 1.886-2.335 0.78-0.654 1.658-1.143 2.636-1.467 0.977-0.317 2.006-0.426 3.089-0.326v0l6.458 0.598c0.932 0.086 1.751 0.387 2.457 0.902 0.713 0.515 1.257 1.167 1.634 1.956 0.376 0.788 0.521 1.649 0.435 2.581zM124.384 270.153l11.322 1.049c0.59 0.055 1.113-0.108 1.569-0.488 0.457-0.379 0.713-0.864 0.767-1.453v0c0.055-0.59-0.108-1.113-0.487-1.57-0.379-0.457-0.864-0.713-1.453-0.767v0l-6.458-0.598c-0.836-0.077-1.618 0.044-2.346 0.364-0.727 0.313-1.347 0.771-1.859 1.373-0.519 0.602-0.87 1.299-1.055 2.09z" fill="#50a060" data-fill-palette-color="primary"></path><path d="M182.327 253.373l2.786 12.498c0.286 1.283 0.233 2.533-0.158 3.749-0.393 1.209-1.051 2.248-1.972 3.116-0.921 0.868-2.03 1.447-3.326 1.736v0c-1.156 0.258-2.284 0.245-3.384-0.039-1.092-0.279-2.06-0.775-2.903-1.49v0c-0.44 1.001-1.098 1.86-1.975 2.577-0.875 0.724-1.888 1.214-3.037 1.471v0c-1.283 0.286-2.53 0.232-3.739-0.161-1.216-0.392-2.259-1.052-3.129-1.979-0.871-0.934-1.45-2.043-1.736-3.327v0l-2.786-12.498 2.792-0.623 2.786 12.499c0.175 0.786 0.526 1.456 1.051 2.008 0.52 0.561 1.145 0.958 1.874 1.191 0.724 0.241 1.479 0.273 2.264 0.098v0c0.759-0.169 1.414-0.506 1.966-1.009 0.551-0.504 0.949-1.104 1.196-1.801 0.247-0.697 0.304-1.422 0.171-2.175v0l-2.831-12.7 2.822-0.629 2.786 12.498c0.175 0.786 0.526 1.456 1.051 2.008 0.52 0.561 1.145 0.958 1.873 1.191 0.724 0.241 1.479 0.273 2.265 0.098v0c0.779-0.174 1.446-0.523 1.999-1.048 0.561-0.52 0.961-1.145 1.2-1.876 0.234-0.722 0.263-1.476 0.088-2.263v0l-2.786-12.498z" fill="#50a060" data-fill-palette-color="primary"></path><path d="M190.328 250.592v0c0.223 0.541 0.22 1.086-0.009 1.634-0.222 0.546-0.607 0.931-1.154 1.156v0c-0.547 0.225-1.095 0.224-1.643-0.004-0.548-0.228-0.934-0.613-1.157-1.155v0c-0.225-0.547-0.224-1.095 0.005-1.643 0.228-0.548 0.616-0.935 1.163-1.161v0c0.547-0.225 1.092-0.223 1.634 0.009 0.548 0.228 0.935 0.616 1.161 1.164zM191.029 254.167l5.984 14.533-2.645 1.089-5.984-14.533z" fill="#50a060" data-fill-palette-color="primary"></path><path d="M211.614 242.788l1.416 2.474-6.986 15.527 11.956-6.843 1.421 2.483-16.123 9.228-1.421-2.483 6.967-15.517-11.938 6.833-1.416-2.474z" fill="#50a060" data-fill-palette-color="primary"></path><path d="M232.004 232.175l6.943 8.166-10.889 9.258c-0.698 0.593-1.482 0.967-2.354 1.12-0.867 0.15-1.714 0.083-2.541-0.198-0.831-0.287-1.548-0.785-2.15-1.493v0c-0.606-0.713-0.982-1.501-1.127-2.362-0.15-0.867-0.081-1.716 0.206-2.548 0.292-0.836 0.787-1.55 1.485-2.143v0l7.623-6.481 1.853 2.179-7.623 6.481c-0.451 0.383-0.701 0.871-0.749 1.463-0.048 0.592 0.12 1.113 0.503 1.565v0c0.379 0.446 0.865 0.693 1.457 0.741 0.592 0.048 1.113-0.12 1.564-0.504v0l8.71-7.404-5.09-5.987c-0.383-0.451-0.871-0.701-1.463-0.749-0.592-0.048-1.111 0.118-1.557 0.497v0l-8.717 7.411-1.847-2.172 8.718-7.411c0.708-0.602 1.496-0.978 2.362-1.127 0.862-0.145 1.706-0.077 2.533 0.205 0.827 0.282 1.544 0.779 2.15 1.493z" fill="#50a060" data-fill-palette-color="primary"></path><path d="M242.245 212.354l2.197 1.816-6.828 8.263c-0.377 0.456-0.538 0.98-0.481 1.571 0.056 0.591 0.313 1.075 0.769 1.453v0l8.263 6.827-1.822 2.205-8.263-6.827c-0.722-0.596-1.229-1.306-1.523-2.129-0.293-0.823-0.369-1.671-0.227-2.546 0.142-0.874 0.504-1.664 1.087-2.37v0z" fill="#50a060" data-fill-palette-color="primary"></path><path d="M247.854 191.103l18.59 10.677-1.425 2.48-11.158-6.408-3.914 6.814c-0.456 0.794-0.675 1.625-0.657 2.493 0.018 0.868 0.246 1.686 0.686 2.454 0.44 0.769 1.057 1.381 1.851 1.837v0c0.794 0.456 1.628 0.677 2.501 0.663 0.874-0.014 1.69-0.232 2.448-0.655 0.758-0.422 1.374-1.025 1.849-1.808v0l3.204-5.579 2.48 1.425-3.204 5.579c-0.542 0.943-1.227 1.721-2.054 2.333-0.822 0.616-1.725 1.054-2.708 1.314-0.98 0.255-1.978 0.321-2.996 0.197-1.02-0.118-2.002-0.447-2.945-0.989v0c-0.943-0.542-1.723-1.224-2.338-2.045-0.619-0.816-1.065-1.711-1.339-2.686-0.27-0.981-0.35-1.983-0.238-3.007 0.118-1.02 0.447-2.002 0.989-2.945v0l3.914-6.815-4.961-2.849z" fill="#50a060" data-fill-palette-color="primary"></path><path d="M270.361 177.035v0c0.876 0.31 1.597 0.801 2.162 1.476 0.558 0.672 0.924 1.436 1.096 2.292 0.17 0.863 0.1 1.733-0.21 2.609v0l-4.048 11.461-2.697-0.953 4.048-11.46c0.197-0.558 0.167-1.102-0.092-1.632-0.256-0.536-0.66-0.901-1.211-1.096v0c-0.558-0.197-1.105-0.168-1.641 0.088-0.534 0.25-0.899 0.653-1.097 1.212v0l-2.617 7.41c-0.261 0.74-0.68 1.355-1.255 1.846-0.584 0.495-1.247 0.812-1.989 0.95-0.752 0.143-1.494 0.085-2.228-0.173v0c-0.753-0.266-1.374-0.69-1.862-1.271-0.484-0.573-0.795-1.234-0.931-1.983-0.139-0.743-0.078-1.484 0.183-2.224v0l3.808-10.779 2.687 0.95-3.807 10.778c-0.135 0.383-0.116 0.751 0.058 1.105 0.168 0.351 0.44 0.594 0.817 0.727v0c0.376 0.133 0.74 0.116 1.092-0.053 0.351-0.168 0.595-0.443 0.73-0.826v0l2.617-7.41c0.31-0.876 0.801-1.597 1.476-2.162 0.672-0.558 1.439-0.923 2.302-1.092 0.857-0.172 1.726-0.102 2.609 0.21z" fill="#50a060" data-fill-palette-color="primary"></path></g></svg></g></svg></g></svg></g><g></g></svg></g><defs></defs></svg><rect width="280" height="280" fill="none" stroke="none" visibility="hidden"></rect></g></svg></g></svg>